<svg id="Calque_1" data-name="Calque 1" xmlns="http://www.w3.org/2000/svg" viewBox="0 0 734.225 440.045"><defs><style>.cls-1{fill:#edc271;}.cls-2{fill:#bc5146;}.cls-3{fill:#6768ab;}</style></defs><path class="cls-1" d="M4.14,12.886a4.139,4.139,0,0,1,4.139,4.139V298.79c0,15.75-9.514,26.217,1.788,26.217.041,0,.074-.008.114-.009,4.015.167,14.562-2.155,33.23-24.189,24.636-29.078,11.309-17.77,11.309-39.579V149.949q1.239-1.767,2.714-3.893l38.936,54.4a3.245,3.245,0,0,1-2.649,5.149,3.254,3.254,0,0,0-3.259,3.258v6.367a3.254,3.254,0,0,0,3.259,3.258h73.245a3.254,3.254,0,0,0,3.259-3.258v-6.367a3.254,3.254,0,0,0-3.259-3.258h-8.114a3.255,3.255,0,0,1-2.65-1.361l-71.49-99.859c12.544-17.471,30.885-35.061,42.7-31.66,10.812,3.116,11.99,16.822,11.967,22.912v.024a6.409,6.409,0,0,0,9.854,5.426c43.959-28.315,15.478-63.834-7.276-66.191C123.071,32.941,97.628,55.4,72.6,87.458c-6.011,7.7-12.006,15.961-17.875,24.574h0V17.025a4.139,4.139,0,0,1,4.139-4.139A4.14,4.14,0,0,0,63,8.746V4.14A4.139,4.139,0,0,0,58.859,0H4.14A4.139,4.139,0,0,0,0,4.14V8.746A4.14,4.14,0,0,0,4.14,12.886Z"/><path class="cls-1" d="M184.669,218.487h54.717a4.14,4.14,0,0,0,4.141-4.14v-4.6a4.141,4.141,0,0,0-4.141-4.141,4.141,4.141,0,0,1-4.141-4.141V107.189S268.5,58.455,275.231,97.5a21.54,21.54,0,1,0,41.537-8h0q-.315-.788-.689-1.546c-10.521-22.117-47.544-31.094-80.834-.491V61.988a4.439,4.439,0,0,0-4.8-4.439c-25.178,2.221-41.637,21.979-41.637,49.105v94.807a4.141,4.141,0,0,1-4.141,4.141h0a4.141,4.141,0,0,0-4.141,4.141v4.6A4.14,4.14,0,0,0,184.669,218.487Z"/><path class="cls-1" d="M331.772,57.532c-18.578-.191-28.271,3.616-21,12.905s34.266,34.664,31.5,86.154c-2.421,45.1-38.771,54.391-50.483,29.352-12.121-25.915-6.856-37.274-.4-41.479,5.453-3.552,3.089-10.965-2.019-13.043-9.76-3.972-23.02-35.541-29.482-29.886-26.929,23.563-12.512,116.952,56.747,116.952,35.357,0,52.133-21.532,60.089-42.613l19.011,39.561a5.385,5.385,0,0,0,4.854,3.052h35.5a5.383,5.383,0,0,0,5.124-3.73l8.744-27.085a5.385,5.385,0,0,1,10.194-.16l9.812,27.406a5.385,5.385,0,0,0,5.07,3.569h33.434a5.385,5.385,0,0,0,5.027-3.453L567.813,73.68a5.384,5.384,0,0,1,5.026-3.454h1.253a5.384,5.384,0,0,0,5.385-5.384V62.726a5.385,5.385,0,0,0-5.385-5.385H521.863a5.385,5.385,0,0,0-5.385,5.385v2.116a5.384,5.384,0,0,0,5.385,5.384h5.813a5.386,5.386,0,0,1,5.094,7.131l-23.539,68.695a5.385,5.385,0,0,1-10.065.325L464.405,62.908a8.983,8.983,0,0,0-8.349-5.53l-23.721.147c-24.03,0-16.761,15.941-16.761,15.941l24.851,58.311a5.39,5.39,0,0,1,.163,3.791l-7.772,23.685a5.385,5.385,0,0,1-10.023.539l-30.745-68.01a17.75,17.75,0,0,1-.2-14.268c4.628-10.837,1.65-17.5-4.971-19.727a5.092,5.092,0,0,0-1.4-.256Z"/><path class="cls-2" d="M730.084,427.055h0a4.141,4.141,0,0,1-4.141-4.141V267.27c0-27.126-16.459-46.884-41.637-49.1a4.44,4.44,0,0,0-4.8,4.439v200.31a4.141,4.141,0,0,1-4.141,4.141h0a4.141,4.141,0,0,0-4.141,4.141v4.6a4.141,4.141,0,0,0,4.141,4.141h54.717a4.141,4.141,0,0,0,4.141-4.141v-4.6A4.141,4.141,0,0,0,730.084,427.055Z"/><path class="cls-2" d="M226.408,427.057a4.167,4.167,0,0,1-4.161-4.144V369.268c.349-12.881,2.967-42.4,18.9-60.841,10.2-10.1,21.378-15.462,24.791,4.33a21.54,21.54,0,1,0,41.537-8h0q-.315-.789-.689-1.546c-10.521-22.118-47.544-31.094-80.834-.491a133.507,133.507,0,0,0-9.6,9.67c-6.91-13.283-19.508-22.012-35.737-23.44a4.439,4.439,0,0,0-4.8,4.437V306.7c0,33.924-11.945,37.791-22.281,40.386-10.71,2.689-42.112,7.19-51.267,37.615s3.14,57.227,32.218,55.241a111.113,111.113,0,0,0,41.33-11.19v5.519a5.671,5.671,0,0,0,5.671,5.671h44.9a4.144,4.144,0,0,0,4.144-4.144v-4.6a4.131,4.131,0,0,0-4.12-4.136Zm-68.9-14.545c-13.732,11.51-31.8,10.085-32.5-10.1-.957-27.448,27-33.207,38.772-34.415a4.673,4.673,0,0,1,5.147,4.586C169.166,389.751,170.07,401.978,157.5,412.512Z"/><path class="cls-2" d="M534.007,427.055h0a4.141,4.141,0,0,1-4.141-4.141V338.05c0-12.4-3.45-23.255-9.591-31.605v-.017c-.064-.09-.137-.173-.2-.263-.209-.279-.422-.554-.636-.827a39.178,39.178,0,0,0-5.033-5.384c-.288-.26-.583-.512-.879-.764-.2-.163-.387-.33-.585-.489a42.732,42.732,0,0,0-13.6-7.475c-18.61-6.648-43.463-4.1-66.3,5.925a44.59,44.59,0,0,0-20.331-7.94,10.736,10.736,0,0,0-2.375-.265,4.293,4.293,0,0,0-.7,0c-16.073,0-24.088.261-47.714,19.481l-.007.013c-7.231-11.05-18.866-18.21-33.426-19.491a4.439,4.439,0,0,0-4.8,4.437V306.7c0,33.924-11.945,37.791-22.281,40.386-10.71,2.689-42.112,7.19-51.267,37.615s3.14,57.227,32.218,55.241a111.135,111.135,0,0,0,41.33-11.189v5.518a5.671,5.671,0,0,0,5.671,5.671h44.9A4.144,4.144,0,0,0,378.4,435.8v-4.6a4.131,4.131,0,0,0-4.12-4.136,4.167,4.167,0,0,1-4.161-4.144v-78.9c.1-1.7.1-3.669,0-5.962,0-.951-.025-1.89-.065-2.822-.251-40.054,33.624-35.3,35.481-4.311v92a4.141,4.141,0,0,1-4.141,4.141,4.141,4.141,0,0,0-4.141,4.141v4.6a4.141,4.141,0,0,0,4.141,4.141h54.717a4.141,4.141,0,0,0,4.141-4.141v-4.6a4.141,4.141,0,0,0-4.141-4.141h0a4.141,4.141,0,0,1-4.141-4.141V338.05a56.954,56.954,0,0,0-4.161-21.938l.009-.011c16.421-19.9,35.612-7.674,35.612,39.062v67.751a4.141,4.141,0,0,1-4.141,4.141,4.141,4.141,0,0,0-4.141,4.141v4.6a4.141,4.141,0,0,0,4.141,4.141h54.717a4.141,4.141,0,0,0,4.141-4.141v-4.6A4.141,4.141,0,0,0,534.007,427.055ZM305.378,412.512c-13.732,11.51-31.8,10.085-32.5-10.1-.957-27.448,27-33.207,38.772-34.415a4.673,4.673,0,0,1,5.147,4.586C317.04,389.751,317.943,401.978,305.378,412.512Z"/><path class="cls-2" d="M90.747,344.36c-8.362-12.016-12.394-17.305-12.394-17.305l-5.844-8.17c16.609-29.912,46.987-23.126,51.677-12.188,3.012,7.027.566,13.272-1.719,16.994a6.647,6.647,0,0,0,.44,7.607,6.519,6.519,0,0,0,3.6,2.328c15.5,3.642,45.591-9.021,35.238-44.7-10.906-37.56-54.525-35.535-75.12-21S36.143,343.45,8.279,350.316h0v72.6a4.139,4.139,0,0,1-4.139,4.14A4.139,4.139,0,0,0,0,431.2V435.8a4.14,4.14,0,0,0,4.14,4.14H58.859A4.14,4.14,0,0,0,63,435.8V431.2a4.139,4.139,0,0,0-4.14-4.14,4.139,4.139,0,0,1-4.139-4.14v-49.1l15.258,21.31c.095.127.182.261.277.4,5.212,7.735,8.938,19.4,10.781,8.7,1.9-11,7.338-26.721,15.951-38.292a65.9,65.9,0,0,0,4.5-6.565C104.928,353.266,98.943,354.153,90.747,344.36Z"/><path class="cls-2" d="M635.97,366.137a46.148,46.148,0,0,0,15.207-4.924A28.442,28.442,0,0,0,661.9,351.075q4.052-6.517,4.054-17.233,0-12.166-4.779-20.711a41.287,41.287,0,0,0-12.454-13.9,52.806,52.806,0,0,0-17.379-7.821,79.414,79.414,0,0,0-19.552-2.461q-32.152,0-49.386,19.261t-17.234,53.441a97.807,97.807,0,0,0,4.49,29.978,75.174,75.174,0,0,0,13.179,24.766,62.528,62.528,0,0,0,21.433,16.944q12.744,6.225,29.545,6.227a51.926,51.926,0,0,0,18.973-3.33,62.632,62.632,0,0,0,14.916-8.11,50.381,50.381,0,0,0,10.428-10.283,35.489,35.489,0,0,0,5.5-10.138q2.022-6.368-1.883-10.428a12.3,12.3,0,0,0-9.123-4.055,12.975,12.975,0,0,0-6.808,2.028q-3.333,2.03-5.068,6.951a69.243,69.243,0,0,1-4.49,9.994,47.841,47.841,0,0,1-6.227,8.979,32.984,32.984,0,0,1-7.531,6.372,16.459,16.459,0,0,1-8.69,2.462q-3.766,0-8.4-3.476t-8.545-10.861q-3.909-7.388-6.517-19.407a137.911,137.911,0,0,1-2.606-28.821h30.414A118.055,118.055,0,0,0,635.97,366.137Zm-21-10.572a13.947,13.947,0,0,1-8.4,2.317H588.033a136.062,136.062,0,0,1,3.186-25.779,99.549,99.549,0,0,1,6.083-18.538q3.476-7.527,7.386-11.3t7.1-3.765a6.415,6.415,0,0,1,5.358,3.041,26.733,26.733,0,0,1,3.621,7.966,59.254,59.254,0,0,1,2.027,11.006q.577,6.083.58,12.166a55.852,55.852,0,0,1-.724,8.834,26.68,26.68,0,0,1-2.607,8.11A16.81,16.81,0,0,1,614.971,355.565Z"/><path class="cls-3" d="M642.281,137.759v.31a3.279,3.279,0,0,1-3.28,3.279h-3.279a19.468,19.468,0,0,0-19.469,19.466V164.1a3.281,3.281,0,0,1-3.28,3.28h-.309a3.281,3.281,0,0,1-3.28-3.28v0a22.745,22.745,0,0,0-22.745-22.746h0a3.28,3.28,0,0,1-3.28-3.279v-.31a3.28,3.28,0,0,1,3.28-3.279h0a22.745,22.745,0,0,0,22.745-22.746v0a3.281,3.281,0,0,1,3.28-3.28h.309a3.281,3.281,0,0,1,3.28,3.28v0A22.745,22.745,0,0,0,639,134.48h0A3.279,3.279,0,0,1,642.281,137.759Z"/></svg>